<svg version="1.1" id="Слой_1" xmlns="http://www.w3.org/2000/svg" x="0" y="0" width="263.368" height="259.129" xml:space="preserve"><style>.st0{fill:#f19700}</style><path class="st0" d="M212.651 152.687h2.346c10.333 0 20.666-.001 30.999.003.76 0 1.524-.01 2.279.054 2.683.222 4.633 2.442 4.547 5.137-.083 2.617-2.098 4.693-4.691 4.815-.568.028-1.14-.002-1.711-.002-76.703 0-153.407-.002-230.11.008-1.287 0-2.517-.055-3.616-.855-1.773-1.289-2.539-3.393-1.96-5.549.522-1.939 2.327-3.4 4.442-3.56.694-.052 1.393-.049 2.09-.049 11.22-.003 22.44-.002 33.66-.002h2.171c-.116-.655-.151-1.091-.273-1.502-2.428-8.225-4.092-16.601-4.7-25.16-1.093-15.414 1.085-30.21 8.695-43.904 6.185-11.132 15.046-19.671 25.857-26.235 9.141-5.55 18.865-9.733 29.371-11.968 16.409-3.492 31.945-1.126 46.606 6.982 10.233 5.659 18.734 13.377 26.185 22.306 9.113 10.92 16.219 23.087 22.254 35.919.888 1.89.784 3.616-.18 5.434-4.315 8.149-10.752 14.173-18.647 18.743-5.644 3.267-11.703 5.42-18.148 6.386-6.374.955-12.626.494-18.619-2.083-5.511-2.368-9.647-6.212-12.336-11.586-1.5-3.001-2.917-6.046-4.498-9.003-.982-1.836-2.081-3.637-3.34-5.292-2.256-2.969-5.035-3.618-8.402-1.98-6.032 2.936-9.328 7.863-9.895 14.499-.754 8.825 2.455 16.394 7.824 23.171 1.253 1.583 2.707 3.017 4.159 4.426.454.439 1.199.799 1.818.809 3.928.066 7.859.024 11.789.009.101 0 .201-.109.415-.231-.142-.19-.244-.407-.411-.54-6.162-4.885-10.793-11.03-14.547-17.862-1.522-2.771-2.869-5.642-4.195-8.513-.831-1.799-.647-3.603.622-5.182 2.32-2.887 6.682-2.463 8.426.837.857 1.621 1.54 3.335 2.367 4.971 3.137 6.207 6.886 11.974 12.152 16.622 5.681 5.014 12.289 7.463 19.885 6.92 4.648-.332 9.069-1.644 13.316-3.544 6.878-3.075 13.056-7.257 18.779-12.109 3.042-2.58 5.921-5.352 8.85-8.065.946-.876 1.909-1.638 3.249-1.814 2.085-.272 3.746.427 4.954 2.118 1.182 1.655 1.194 3.839.05 5.543-.384.572-.88 1.08-1.376 1.566-7.165 7.042-14.829 13.447-23.566 18.486-.212.122-.4.291-.591.449-.032.027-.016.112-.044.377h1.816c2.092 0 4.199-.157 6.272.043 2.112.204 3.626-.591 5.016-2.028a158.812 158.812 0 015.15-5.068c1.366-1.29 2.966-1.902 4.871-1.356 3.09.886 4.574 3.938 3.339 6.898-.167.401-.391.777-.765 1.511m-15.668-41.07c-.1-.276-.15-.457-.23-.624-4.939-10.241-10.669-20-17.73-28.938-6.408-8.112-13.686-15.295-22.536-20.755-13.081-8.069-27.145-10.679-42.242-7.545-9.144 1.899-17.591 5.536-25.577 10.276-8.45 5.018-15.623 11.439-21.018 19.729-7.154 10.997-9.836 23.212-9.686 36.151.117 9.946 1.891 19.643 4.755 29.151.359 1.195.73 2.386 1.11 3.624 2.827-.039 5.439.102 8.184-.097-.201-.727-.32-1.21-.469-1.684-1.586-5.027-2.636-10.16-3.095-15.419-1.229-14.073.925-27.575 7.285-40.223 9.772-19.434 25.416-30.606 47.26-32.523 8.677-.761 17.016.888 24.909 4.617 9.93 4.693 17.712 11.898 24.068 20.732 6.923 9.622 11.545 20.332 14.833 31.661.185.632.412 1.253.674 2.047 3.98-2.898 7.113-6.219 9.505-10.18M91.917 152.639c.104-.252.165-.324.147-.364-.57-1.335-1.166-2.66-1.72-4.002-4.402-10.677-6.213-21.68-3.515-33.061 3.46-14.594 12.007-25.053 26.052-30.69 5.647-2.268 11.563-3.247 17.662-2.472 5.906.75 11.182 3.083 15.949 6.606 5.907 4.366 10.398 9.969 14.119 16.235 4.129 6.951 7.127 14.389 9.503 22.096.234.758.514 1.502.799 2.33 1.375-.357 2.545-.612 3.684-.969 1.19-.373 2.351-.842 3.595-1.294-.123-.641-.191-1.135-.314-1.617-1.433-5.587-3.253-11.047-5.581-16.325-4.237-9.603-9.744-18.332-17.694-25.344-6.774-5.972-14.548-9.946-23.591-10.811-9.622-.919-18.787.923-27.212 5.823-9.872 5.741-16.457 14.301-20.752 24.711-3.7 8.97-5.194 18.34-4.744 28.041.306 6.634 1.545 13.058 3.9 19.266.242.637.543 1.25.803 1.841h8.91zm68.302-22.989c-.054-.479-.044-.676-.1-.852-2.131-6.649-4.761-13.083-8.374-19.079-2.53-4.198-5.479-8.074-9.211-11.293-5.976-5.152-12.754-7.642-20.703-6.05-15.298 3.065-24.648 15.713-25.916 29.707-.966 10.686 2.103 20.393 7.372 29.546.482.84 1.064 1.104 1.983 1.075 1.772-.059 3.548-.006 5.322-.027.389-.006.777-.126 1.305-.217-.544-.8-.977-1.42-1.394-2.051-.42-.634-.843-1.265-1.23-1.918-4.871-8.237-7.575-17.008-6.138-26.662 1.714-11.51 8.531-18.912 19.199-22.913 4.625-1.735 8.96-.74 12.829 2.318 2.777 2.194 4.955 4.922 6.667 7.968 2.044 3.638 3.829 7.421 5.785 11.109.767 1.446 1.543 2.931 2.576 4.182 2.528 3.061 5.925 4.569 10.028 5.157m-3.012 85.395c-21.063-.216-38.377-6.537-53.605-18.67-5.724-4.562-10.813-9.758-15.408-15.448-.853-1.058-1.528-2.161-1.556-3.58-.045-2.199.936-3.809 2.876-4.736 1.874-.894 3.715-.627 5.331.697.53.436.962 1.003 1.401 1.541 8.867 10.896 19.487 19.492 32.591 24.823 6.545 2.664 13.334 4.262 20.38 4.902 13.477 1.223 26.309-1.386 38.765-6.321 2.35-.93 4.624-2.049 6.946-3.047 2.6-1.118 5.306-.295 6.6 1.966 1.471 2.571.562 5.721-2.242 7.073a137.812 137.812 0 01-9.214 4.013c-7.437 2.94-15.136 4.955-23.062 5.99-3.76.49-7.567.624-9.803.797"/><path class="st0" d="M144.564 37.241c-1.201-.216-2.202-.356-3.184-.58-8.152-1.859-16.432-2.405-24.723-1.746-18.892 1.503-35.188 8.794-48.425 22.527-6.399 6.639-11.282 14.291-14.868 22.774-.565 1.335-1.314 2.447-2.634 3.106-1.968.979-3.817.694-5.505-.629-1.561-1.223-2.242-3.394-1.542-5.308a51.173 51.173 0 012.352-5.388c12.298-24.439 31.792-39.652 58.523-45.552 7.651-1.689 15.411-2.173 23.211-1.776 6.005.306 11.962 1.114 17.805 2.588 2.209.557 3.678 2.264 3.83 4.44.144 2.063-.687 3.734-2.511 4.757-.746.418-1.642.564-2.329.787m3.211 197.349c-15.547-.075-28.473-4.161-40.484-11.371-10.594-6.36-19.574-14.593-27.6-23.915a153.274 153.274 0 01-13.837-18.806c-.582-.931-1.033-2.061-1.147-3.139-.237-2.24 1.046-4.048 3.148-4.887 1.986-.793 4.259-.224 5.668 1.459.405.483.729 1.034 1.071 1.567 6.783 10.543 14.542 20.28 23.903 28.665 8.478 7.594 17.88 13.661 28.787 17.219 8.683 2.832 17.558 3.639 26.606 2.596 2.381-.276 4.742-.738 7.103-1.169 3.042-.555 5.333.427 6.374 2.8 1.251 2.848-.263 6.146-3.372 6.882a83.005 83.005 0 01-8.954 1.583c-2.884.357-5.804.42-7.266.516m14.301-37.72c-16.668-.341-31.65-5.525-44.959-15.529-2.701-2.03-3.083-5.352-1-7.61 1.623-1.76 4.159-2.166 6.241-.981.382.219.733.496 1.088.76 8.309 6.164 17.489 10.394 27.706 12.148 15.721 2.7 30.329.053 43.411-9.45 1.278-.928 2.434-2.023 3.676-3.004 1.574-1.242 3.335-1.457 5.176-.722 1.812.724 2.792 2.16 3.023 4.052.222 1.835-.538 3.302-1.907 4.524a59.33 59.33 0 01-15.746 10.119c-7.126 3.127-14.563 4.99-22.355 5.37-1.453.07-2.903.214-4.354.323"/><path class="st0" d="M163.218 183.227c-2.793-.35-5.259-.525-7.667-.996-3.031-.592-4.656-3.142-4.084-6.024.544-2.73 3.235-4.447 6.209-3.815 3.917.831 7.769.568 11.633-.317 2.984-.686 5.543.899 6.204 3.736.64 2.745-.881 5.295-3.85 5.971-2.88.656-5.83 1.009-8.445 1.445M4.378 40.938H0V0h40.413v4.377H4.378zm258.99 0h-4.378V4.377h-36.037V0h40.415zm0 218.191h-40.415v-4.378h36.037v-36.56h4.378zm-222.954 0H0v-40.938h4.378v36.56h36.036z"/></svg>